<svg xmlns="http://www.w3.org/2000/svg" viewBox="240 410 620 720">
<path fill="#1B2432" opacity="1.000000" stroke="none"
	d="
M441.346588,1035.290283
	C443.518799,1034.488770 445.644623,1033.510742 447.873444,1032.924438
	C451.856201,1031.876587 453.458038,1029.719116 452.907043,1025.421143
	C451.997528,1018.327087 451.586273,1011.168762 450.983307,1004.036011
	C448.332428,972.677307 445.540558,941.329590 443.098572,909.954651
	C441.704498,892.043823 440.884491,874.088257 440.666565,856.149841
	C446.408173,854.850708 452.149750,853.551514 457.856018,852.260376
	C456.086456,835.010437 454.396423,818.535950 453.047150,801.428406
	C454.182617,799.834106 455.899872,798.391785 456.362396,796.621643
	C460.460571,780.937866 464.899414,765.353638 460.620544,748.769592
	C459.267273,743.524475 460.159302,737.699951 460.778870,732.182861
	C469.359955,734.748840 469.266327,734.675476 474.666992,727.784668
	C491.368622,706.474854 508.148224,685.226257 525.561401,663.776855
	C536.664551,655.315247 547.767761,646.853638 559.533875,638.081238
	C587.192749,619.863159 615.031067,601.837646 638.545288,578.206482
	C647.517151,569.190002 657.657410,561.020508 663.858948,548.945618
	C667.621643,548.252563 671.358704,547.325134 675.151733,546.908813
	C688.485901,545.445190 691.606750,547.302063 697.128052,559.495728
	C697.677002,560.708130 698.252625,561.908508 698.808105,563.117981
	C707.457458,581.952332 725.293701,581.579529 739.457214,572.660706
	C742.260681,570.895447 743.861328,570.854065 746.341370,572.894775
	C751.562500,577.190979 754.961426,576.463501 758.423279,570.596558
	C761.042358,566.157898 763.127869,561.353943 766.144104,557.218140
	C768.088623,554.551941 770.995422,551.575378 773.977356,550.865601
	C783.366028,548.630920 790.362244,543.042236 797.683228,536.656128
	C809.810547,526.730530 817.791504,514.226013 816.403442,498.290436
	C814.108826,471.947235 801.094177,451.085785 778.753845,437.239319
	C759.156921,425.093292 737.139648,426.570953 718.298767,442.082611
	C710.874756,449.350037 702.612305,455.959229 696.251892,464.061554
	C689.249023,472.982147 681.100769,478.628235 669.366577,479.686249
	C668.977173,475.686981 666.804321,473.537933 662.862244,472.587128
	C660.517273,472.021576 658.154236,470.865479 656.207336,469.423859
	C643.799316,460.236359 629.737976,455.574127 614.564880,453.956238
	C590.970337,451.440430 568.031006,455.729889 545.385803,461.498688
	C503.600677,472.143372 461.824158,482.858521 420.268921,494.357056
	C388.566742,503.129150 357.952698,514.798767 330.508087,533.583191
	C304.690552,551.253906 286.867340,574.801758 282.462830,605.941650
	C278.250458,635.723083 275.471924,665.863220 274.568451,695.921082
	C273.121979,744.042969 273.773102,792.227356 273.428986,840.384521
	C273.406342,843.550049 274.244904,845.313843 277.437683,846.039124
	C290.548218,849.017395 303.633209,852.108398 316.712799,856.006104
	C317.535492,859.964111 318.358185,863.922119 319.088898,868.695190
	C330.026917,923.207886 341.333374,977.651367 351.596130,1032.290894
	C353.680450,1043.388184 357.442688,1049.785034 369.071838,1050.844116
	C368.509552,1054.953613 368.066376,1059.083740 367.358063,1063.167969
	C366.194641,1069.876221 364.382629,1076.506226 363.697968,1083.255859
	C362.367615,1096.370605 367.413940,1102.922607 380.393463,1104.425537
	C387.780151,1105.280884 395.343048,1104.484619 402.811523,1104.795288
	C412.908569,1105.214966 423.006805,1105.797852 433.076080,1106.647949
	C446.642242,1107.793091 460.157593,1109.903564 473.738770,1110.402954
	C486.890411,1110.886475 500.047211,1109.313110 512.435547,1104.309692
	C520.877991,1100.899902 521.860657,1097.425537 517.959351,1090.069946
	C522.606506,1088.384766 527.603210,1087.302368 531.812073,1084.861450
	C537.039368,1081.829956 536.287598,1075.083008 530.742310,1072.585327
	C528.058105,1071.376343 525.063965,1070.585327 522.134644,1070.234131
	C501.023987,1067.703003 481.579620,1060.044189 462.903076,1050.463135
	C455.182922,1046.502686 448.330811,1040.850342 441.346588,1035.290283
z"/>
<path fill="#FDEBB7" opacity="1.000000" stroke="none"
	d="
M452.706390,802.061401
	C454.396423,818.535950 456.086456,835.010437 457.856018,852.260376
	C452.149750,853.551514 446.408173,854.850708 439.858093,856.125732
	C417.598938,860.009705 396.116913,860.663025 374.548126,856.986755
	C370.424805,856.283936 368.266876,854.649902 367.627014,850.156372
	C364.277039,826.631104 360.615662,803.150024 357.032684,779.658142
	C356.889008,778.716064 356.443817,777.820007 356.139099,776.902466
	C355.303650,778.029846 355.158478,778.991272 355.076355,779.958130
	C353.107269,803.135681 351.076172,826.308411 349.259216,849.497925
	C349.001892,852.782227 347.952118,854.355713 344.627228,854.427124
	C335.326385,854.627014 326.027344,854.908630 316.727570,855.157959
	C303.633209,852.108398 290.548218,849.017395 277.437683,846.039124
	C274.244904,845.313843 273.406342,843.550049 273.428986,840.384521
	C273.773102,792.227356 273.121979,744.042969 274.568451,695.921082
	C275.471924,665.863220 278.250458,635.723083 282.462830,605.941650
	C286.867340,574.801758 304.690552,551.253906 330.508087,533.583191
	C357.952698,514.798767 388.566742,503.129150 420.268921,494.357056
	C461.824158,482.858521 503.600677,472.143372 545.385803,461.498688
	C568.031006,455.729889 590.970337,451.440430 614.564880,453.956238
	C629.737976,455.574127 643.799316,460.236359 656.207336,469.423859
	C658.154236,470.865479 660.517273,472.021576 662.862244,472.587128
	C666.804321,473.537933 668.977173,475.686981 669.694824,480.299377
	C673.558289,496.346527 673.963135,511.805237 669.844238,527.171204
	C667.876709,534.511292 665.332947,541.696899 663.050171,548.952515
	C657.657410,561.020508 647.517151,569.190002 638.545288,578.206482
	C615.031067,601.837646 587.192749,619.863159 559.054688,637.966858
	C559.666077,636.491516 560.618652,634.986328 561.867676,633.790833
	C583.432983,613.151306 605.050842,592.566528 626.598877,571.909119
	C628.351868,570.228638 629.683594,568.108765 631.334900,566.101196
	C631.278564,565.974426 631.098328,565.939575 630.588318,565.995850
	C620.732666,573.595581 611.224854,581.127197 601.677612,588.608459
	C574.526123,609.884827 548.973694,632.840027 527.107056,659.655823
	C526.111267,660.877014 525.622437,662.511719 524.897522,663.953857
	C508.148224,685.226257 491.368622,706.474854 474.666992,727.784668
	C469.266327,734.675476 469.359955,734.748840 460.103333,731.974121
	C447.413666,726.666992 437.031281,719.381958 428.828613,708.684570
	C422.284668,698.069580 423.753571,688.468384 431.174194,679.355347
	C434.219604,675.615356 437.181122,671.806946 440.231201,668.070740
	C456.321655,648.360779 472.656586,628.845154 488.471954,608.917114
	C508.845367,583.245789 528.707031,557.168762 551.569763,533.582886
	C556.991882,527.989258 562.091797,522.083435 567.465698,516.183350
	C567.337036,515.967041 567.082703,515.888550 566.505859,515.919800
	C542.984314,533.848450 521.815125,553.888550 503.021973,576.236572
	C481.379639,601.972717 460.539093,628.383240 439.357025,654.506226
	C435.476624,659.291748 431.987579,664.455078 427.697693,668.836792
	C414.594788,682.220093 412.509277,697.770081 417.539673,715.320129
	C412.764008,723.723755 407.438324,731.484741 403.766724,739.962219
	C397.134979,755.274292 397.883087,771.472900 400.552612,787.556274
	C400.874298,789.494202 403.367706,791.071777 404.854553,792.816345
	C406.209717,790.914124 407.832214,789.140259 408.828400,787.065674
	C409.520721,785.623901 409.352112,783.768799 409.568146,782.098328
	C410.816986,783.614441 410.782135,785.065857 411.117615,786.425964
	C413.091125,794.427307 414.520233,802.641663 417.375366,810.322449
	C419.788452,816.814026 422.796631,817.503235 429.052155,815.467407
	C435.732025,822.778748 441.380707,821.805725 444.429077,812.786621
	C444.796875,811.698486 444.963928,810.524963 445.091797,809.376282
	C445.691559,803.987854 446.245056,798.594238 446.829803,793.063110
	C448.953705,796.315308 450.830048,799.188354 452.706390,802.061401
M570.526123,513.159485
	C570.347229,513.435242 570.168274,513.710999 569.694946,514.013367
	C569.799133,514.010803 569.903320,514.008240 570.452698,513.796082
	C570.730103,513.592163 570.906250,513.322205 571.238892,512.903259
	C571.166016,512.943604 571.093140,512.983887 570.526123,513.159485
M634.433899,563.773010
	C634.708252,563.568909 634.890869,563.302002 635.217163,562.896729
	C635.217163,562.896729 635.201721,562.588623 635.201721,562.588623
	C635.201721,562.588623 635.033386,563.023987 634.549927,563.185120
	C634.372314,563.461670 634.194702,563.738220 633.741394,564.032043
	C633.824707,564.017517 633.908081,564.002930 634.433899,563.773010
z"/>
<path fill="#FDEBB7" opacity="1.000000" stroke="none"
	d="
M369.084839,1049.962646
	C357.442688,1049.785034 353.680450,1043.388184 351.596130,1032.290894
	C341.333374,977.651367 330.026917,923.207886 319.590393,868.304443
	C344.044800,868.317261 367.997253,868.755127 391.950958,869.105347
	C399.939056,869.222168 407.931824,869.198792 415.919556,869.066345
	C418.891327,869.017029 420.056854,870.082581 420.132324,873.096863
	C420.240356,877.411316 420.767853,881.715393 421.118347,886.023682
	C422.533447,903.417908 423.863251,920.819702 425.387207,938.204407
	C427.186920,958.734924 429.103607,979.255615 431.069153,999.771057
	C432.224915,1011.834351 433.574127,1023.879150 434.805603,1036.302979
	C433.900421,1038.075439 433.284760,1039.780029 432.086853,1040.802856
	C430.543549,1042.120605 428.533905,1042.892090 426.343079,1043.902588
	C407.459137,1050.215332 388.537384,1052.581421 369.084839,1049.962646
z"/>
<path fill="#E1AF64" opacity="1.000000" stroke="none"
	d="
M663.454590,548.949097
	C665.332947,541.696899 667.876709,534.511292 669.844238,527.171204
	C673.963135,511.805237 673.558289,496.346527 669.996643,480.511230
	C681.100769,478.628235 689.249023,472.982147 696.251892,464.061554
	C702.612305,455.959229 710.874756,449.350037 718.900757,442.201904
	C740.229248,467.279663 760.988098,492.211365 781.659546,517.215332
	C786.927368,523.587280 791.918091,530.188354 797.036133,536.684204
	C790.362244,543.042236 783.366028,548.630920 773.977356,550.865601
	C770.995422,551.575378 768.088623,554.551941 766.144104,557.218140
	C763.127869,561.353943 761.042358,566.157898 758.423279,570.596558
	C754.961426,576.463501 751.562500,577.190979 746.341370,572.894775
	C743.861328,570.854065 742.260681,570.895447 739.457214,572.660706
	C725.293701,581.579529 707.457458,581.952332 698.808105,563.117981
	C698.252625,561.908508 697.677002,560.708130 697.128052,559.495728
	C691.606750,547.302063 688.485901,545.445190 675.151733,546.908813
	C671.358704,547.325134 667.621643,548.252563 663.454590,548.949097
z"/>
<path fill="#E3B166" opacity="1.000000" stroke="none"
	d="
M369.078339,1050.403320
	C388.537384,1052.581421 407.459137,1050.215332 426.624084,1044.122070
	C432.750488,1049.828613 437.570557,1056.224609 443.793182,1060.647339
	C465.809967,1076.295776 490.713989,1085.222290 517.162720,1090.068115
	C521.860657,1097.425537 520.877991,1100.899902 512.435547,1104.309692
	C500.047211,1109.313110 486.890411,1110.886475 473.738770,1110.402954
	C460.157593,1109.903564 446.642242,1107.793091 433.076080,1106.647949
	C423.006805,1105.797852 412.908569,1105.214966 402.811523,1104.795288
	C395.343048,1104.484619 387.780151,1105.280884 380.393463,1104.425537
	C367.413940,1102.922607 362.367615,1096.370605 363.697968,1083.255859
	C364.382629,1076.506226 366.194641,1069.876221 367.358063,1063.167969
	C368.066376,1059.083740 368.509552,1054.953613 369.078339,1050.403320
z"/>
<path fill="#DDAB63" opacity="1.000000" stroke="none"
	d="
M434.836334,1035.932129
	C433.574127,1023.879150 432.224915,1011.834351 431.069153,999.771057
	C429.103607,979.255615 427.186920,958.734924 425.387207,938.204407
	C423.863251,920.819702 422.533447,903.417908 421.118347,886.023682
	C420.767853,881.715393 420.240356,877.411316 420.132324,873.096863
	C420.056854,870.082581 418.891327,869.017029 415.919556,869.066345
	C407.931824,869.198792 399.939056,869.222168 391.950958,869.105347
	C367.997253,868.755127 344.044800,868.317261 319.636383,867.896851
	C318.358185,863.922119 317.535492,859.964111 316.720184,855.582031
	C326.027344,854.908630 335.326385,854.627014 344.627228,854.427124
	C347.952118,854.355713 349.001892,852.782227 349.259216,849.497925
	C351.076172,826.308411 353.107269,803.135681 355.076355,779.958130
	C355.158478,778.991272 355.303650,778.029846 356.139099,776.902466
	C356.443817,777.820007 356.889008,778.716064 357.032684,779.658142
	C360.615662,803.150024 364.277039,826.631104 367.627014,850.156372
	C368.266876,854.649902 370.424805,856.283936 374.548126,856.986755
	C396.116913,860.663025 417.598938,860.009705 439.427795,856.127258
	C440.884491,874.088257 441.704498,892.043823 443.098572,909.954651
	C445.540558,941.329590 448.332428,972.677307 450.983307,1004.036011
	C451.586273,1011.168762 451.997528,1018.327087 452.907043,1025.421143
	C453.458038,1029.719116 451.856201,1031.876587 447.873444,1032.924438
	C445.644623,1033.510742 443.518799,1034.488770 440.772156,1035.636963
	C438.410614,1035.966431 436.623474,1035.949341 434.836334,1035.932129
z"/>
<path fill="#FCEBB8" opacity="1.000000" stroke="none"
	d="
M797.359680,536.670166
	C791.918091,530.188354 786.927368,523.587280 781.659546,517.215332
	C760.988098,492.211365 740.229248,467.279663 719.233765,442.112122
	C737.139648,426.570953 759.156921,425.093292 778.753845,437.239319
	C801.094177,451.085785 814.108826,471.947235 816.403442,498.290436
	C817.791504,514.226013 809.810547,526.730530 797.359680,536.670166
z"/>
<path fill="#E0AC61" opacity="1.000000" stroke="none"
	d="
M452.876770,801.744873
	C450.830048,799.188354 448.953705,796.315308 446.829803,793.063110
	C446.245056,798.594238 445.691559,803.987854 445.091797,809.376282
	C444.963928,810.524963 444.796875,811.698486 444.429077,812.786621
	C441.380707,821.805725 435.732025,822.778748 429.052155,815.467407
	C422.796631,817.503235 419.788452,816.814026 417.375366,810.322449
	C414.520233,802.641663 413.091125,794.427307 411.117615,786.425964
	C410.782135,785.065857 410.816986,783.614441 409.568146,782.098328
	C409.352112,783.768799 409.520721,785.623901 408.828400,787.065674
	C407.832214,789.140259 406.209717,790.914124 404.854553,792.816345
	C403.367706,791.071777 400.874298,789.494202 400.552612,787.556274
	C397.883087,771.472900 397.134979,755.274292 403.766724,739.962219
	C407.438324,731.484741 412.764008,723.723755 417.833679,715.268188
	C421.864136,712.937317 425.404968,710.978088 428.945862,709.018799
	C437.031281,719.381958 447.413666,726.666992 459.725769,731.953003
	C460.159302,737.699951 459.267273,743.524475 460.620544,748.769592
	C464.899414,765.353638 460.460571,780.937866 456.362396,796.621643
	C455.899872,798.391785 454.182617,799.834106 452.876770,801.744873
z"/>
<path fill="#CB9956" opacity="1.000000" stroke="none"
	d="
M434.805603,1036.302979
	C436.623474,1035.949341 438.410614,1035.966431 440.640808,1035.975586
	C448.330811,1040.850342 455.182922,1046.502686 462.903076,1050.463135
	C481.579620,1060.044189 501.023987,1067.703003 522.134644,1070.234131
	C525.063965,1070.585327 528.058105,1071.376343 530.742310,1072.585327
	C536.287598,1075.083008 537.039368,1081.829956 531.812073,1084.861450
	C527.603210,1087.302368 522.606506,1088.384766 517.561035,1090.069092
	C490.713989,1085.222290 465.809967,1076.295776 443.793182,1060.647339
	C437.570557,1056.224609 432.750488,1049.828613 427.006104,1044.118286
	C428.533905,1042.892090 430.543549,1042.120605 432.086853,1040.802856
	C433.284760,1039.780029 433.900421,1038.075439 434.805603,1036.302979
z"/>
<path fill="#DDAB63" opacity="1.000000" stroke="none"
	d="
M631.211060,566.193115
	C629.683594,568.108765 628.351868,570.228638 626.598877,571.909119
	C605.050842,592.566528 583.432983,613.151306 561.867676,633.790833
	C560.618652,634.986328 559.666077,636.491516 558.723267,638.122192
	C547.767761,646.853638 536.664551,655.315247 525.229492,663.865356
	C525.622437,662.511719 526.111267,660.877014 527.107056,659.655823
	C548.973694,632.840027 574.526123,609.884827 601.677612,588.608459
	C611.224854,581.127197 620.732666,573.595581 630.660583,566.068970
	C631.062683,566.050903 631.211121,566.193115 631.211060,566.193115
z"/>
<path fill="#DDAB63" opacity="1.000000" stroke="none"
	d="
M428.828583,708.684570
	C425.404968,710.978088 421.864136,712.937317 418.029266,714.948486
	C412.509277,697.770081 414.594788,682.220093 427.697693,668.836792
	C431.987579,664.455078 435.476624,659.291748 439.357025,654.506226
	C460.539093,628.383240 481.379639,601.972717 503.021973,576.236572
	C521.815125,553.888550 542.984314,533.848450 566.632812,516.048584
	C567.082336,516.067566 567.339966,516.321228 567.339966,516.321228
	C562.091797,522.083435 556.991882,527.989258 551.569763,533.582886
	C528.707031,557.168762 508.845367,583.245789 488.471954,608.917114
	C472.656586,628.845154 456.321655,648.360779 440.231201,668.070740
	C437.181122,671.806946 434.219604,675.615356 431.174194,679.355347
	C423.753571,688.468384 422.284668,698.069580 428.828583,708.684570
z"/>
<path fill="#DDAB63" opacity="1.000000" stroke="none"
	d="
M635.033386,563.023987
	C635.033386,563.023987 635.201721,562.588623 635.201721,562.588623
	C635.201721,562.588623 635.217163,562.896729 635.110901,562.948853
	C635.004639,563.001038 635.033386,563.023987 635.033386,563.023987
z"/>
<path fill="#DDAB63" opacity="1.000000" stroke="none"
	d="
M634.017090,564.014709
	C634.194702,563.738220 634.372314,563.461670 634.791626,563.104553
	C635.033386,563.023987 635.004639,563.001038 634.993164,562.986694
	C634.890869,563.302002 634.708252,563.568909 634.217957,563.887451
	C634.002014,564.001831 634.017090,564.014709 634.017090,564.014709
z"/>
<path fill="#DDAB63" opacity="1.000000" stroke="none"
	d="
M633.996704,563.995117
	C633.908081,564.002930 633.824707,564.017517 633.879272,564.023376
	C634.017090,564.014709 634.002014,564.001831 633.996704,563.995117
z"/>
<path fill="#DDAB63" opacity="1.000000" stroke="none"
	d="
M630.990417,565.977783
	C631.098328,565.939575 631.278564,565.974426 631.334961,566.101196
	C631.211121,566.193115 631.062683,566.050903 630.990417,565.977783
z"/>
<path fill="#DDAB63" opacity="1.000000" stroke="none"
	d="
M566.955322,515.938843
	C567.082703,515.888550 567.337036,515.967041 567.465698,516.183350
	C567.339966,516.321228 567.082336,516.067566 566.955322,515.938843
z"/>
<path fill="#DDAB63" opacity="1.000000" stroke="none"
	d="
M570.007507,514.005676
	C569.903320,514.008240 569.799133,514.010803 569.846924,514.006104
	C569.998962,513.998901 570.007507,514.005676 570.007507,514.005676
z"/>
<path fill="#DDAB63" opacity="1.000000" stroke="none"
	d="
M569.994141,513.992798
	C570.168274,513.710999 570.347229,513.435242 570.764160,513.081299
	C571.002136,513.003113 570.981140,512.986145 570.981140,512.986145
	C570.906250,513.322205 570.730103,513.592163 570.230103,513.900879
	C570.007507,514.005676 569.998962,513.998901 569.994141,513.992798
z"/>
<path fill="#DDAB63" opacity="1.000000" stroke="none"
	d="
M571.011230,513.013672
	C571.093140,512.983887 571.166016,512.943604 571.109985,512.944702
	C570.981140,512.986145 571.002136,513.003113 571.011230,513.013672
z"/>
</svg>
