<svg xmlns="http://www.w3.org/2000/svg" viewBox="0 0 24 24">
  <path d="M3.2 20h17.6" fill="none" stroke="#000000" stroke-width="1.7" stroke-linecap="round"/>
  <path d="M5.9 15.1a2.45 2.45 0 1 1 0 4.9 2.45 2.45 0 0 1 0-4.9Z" fill="#000000"/>
  <path d="M7.9 18h4.8c.7 0 1.3.6 1.3 1.3v.6H7.1c.5-.5.8-1.2.8-1.9Z" fill="#000000"/>
  <path d="M9.3 15.7c1.6-2.7 4.2-4.2 7.4-4.2 2.3 0 4.1 1.8 4.1 4.1v4.3h-2.6v-3.5c0-1-.7-1.8-1.7-2-2.2-.4-4.2.6-5.4 2.5-.3.5-1 .7-1.5.4-.6-.3-.7-1.1-.3-1.6Z" fill="#000000"/>
  <path d="M13.6 13.1h2.5l-2.9 6.8h-2.5l2.9-6.8Z" fill="#000000"/>
</svg>
