<svg xmlns="http://www.w3.org/2000/svg" viewBox="0 0 64 64">
  <path d="M7 50h50" fill="none" stroke="#000000" stroke-width="4.2" stroke-linecap="round"/>
  <path d="M19 42h15c2.8 0 4.8 2 4.8 4.4 0 2.1-1.7 3.6-3.8 3.6H18.4V42H19Z" fill="#000000"/>
  <path d="M13.2 42.1c-3.1-.8-5.4.8-5.4 4.1V50h8.5v-7.1l-3.1-.8Z" fill="none" stroke="#000000" stroke-width="4.2" stroke-linecap="round" stroke-linejoin="round"/>
  <path d="M20.5 42c-5.8-7.2-4.3-18.9 3.6-23.5 9.8-5.8 27.6 1.3 33.2 14 2.2 5 .7 9.7-3.4 11.3-5.8 2.3-13.3-.9-17.3-6.7-2.6-3.8-3.9-7-6.1-10.2" fill="none" stroke="#000000" stroke-width="4.2" stroke-linecap="round" stroke-linejoin="round"/>
  <path d="M38.2 37.2 31.9 50M45.2 39.6 38.2 50" fill="none" stroke="#000000" stroke-width="4.2" stroke-linecap="round" stroke-linejoin="round"/>
  <path d="M46.8 44.3c1.8-3.6 6.6-6.1 10-3.8 3.8 2.5 3.6 9.5-2.3 9.5H46" fill="none" stroke="#000000" stroke-width="4.2" stroke-linecap="round" stroke-linejoin="round"/>
</svg>
