<svg xmlns="http://www.w3.org/2000/svg" viewBox="0 0 64 64">
  <path d="M8 57h48" fill="none" stroke="#000000" stroke-width="4.5" stroke-linecap="round"/>
  <path d="M9.5 52c1.4-6 1.4-22.5.5-30.4C8.9 12.5 19.6 6.2 34.6 7.2c9.9.7 20.1 4.8 24.2 10.2 2.9 3.8.9 9.3-4.4 12-4.9 2.5-13.7 1.7-20.2-.7-5.5-2-11.5-2.1-16.4.2v25.3c-2.5.2-5.8-.3-8.3-2.2Z" fill="#000000"/>
  <path d="M47.7 24.8c2.7-5.1 10.8-7.1 15.1-2.1 4.5 5.3.7 13.8-6.6 13.8-5.1 0-9-3.8-8.5-11.7Z" fill="#000000"/>
  <path d="M26.2 32.1 39 42.6 31.1 52.8" fill="none" stroke="#000000" stroke-width="5" stroke-linecap="round" stroke-linejoin="round"/>
  <path d="M36.2 31.3 45.6 36.9" fill="none" stroke="#000000" stroke-width="5" stroke-linecap="round" stroke-linejoin="round"/>
  <path d="M17.7 53.2c2.7 2.9 7.2 4.2 13.5 3.8" fill="none" stroke="#000000" stroke-width="5" stroke-linecap="round"/>
</svg>
